<svg width="103" height="102" viewBox="0 0 103 102" fill="none" xmlns="http://www.w3.org/2000/svg">
<path d="M90.125 63.9178V19.125C90.125 14.7313 86.5149 11.1562 82.0781 11.1562H78.8594V7.96875C78.8594 5.33221 76.6936 3.1875 74.0312 3.1875C71.3689 3.1875 69.2031 5.33221 69.2031 7.96875V11.1562H61.1562V7.96875C61.1562 5.33221 58.9905 3.1875 56.3281 3.1875C53.6657 3.1875 51.5 5.33221 51.5 7.96875V11.1562H41.8438V7.96875C41.8438 5.33221 39.678 3.1875 37.0156 3.1875C34.3532 3.1875 32.1875 5.33221 32.1875 7.96875V11.1562H24.1406V7.96875C24.1406 5.33221 21.9749 3.1875 19.3125 3.1875C16.6501 3.1875 14.4844 5.33221 14.4844 7.96875V11.1562H11.2656C6.82884 11.1562 3.21875 14.7313 3.21875 19.125V82.875C3.21875 87.2687 6.82884 90.8438 11.2656 90.8438H65.3784C68.7238 96.5507 74.948 100.406 82.0781 100.406C92.7277 100.406 101.391 91.8274 101.391 81.2812C101.391 73.5812 96.7627 66.9469 90.125 63.9178ZM72.4219 7.96875C72.4219 7.08938 73.1433 6.375 74.0312 6.375C74.9192 6.375 75.6406 7.08938 75.6406 7.96875V17.5312C75.6406 18.4106 74.9192 19.125 74.0312 19.125C73.1433 19.125 72.4219 18.4106 72.4219 17.5312V7.96875ZM54.7188 7.96875C54.7188 7.08938 55.4401 6.375 56.3281 6.375C57.2161 6.375 57.9375 7.08938 57.9375 7.96875V17.5312C57.9375 18.4106 57.2161 19.125 56.3281 19.125C55.4401 19.125 54.7188 18.4106 54.7188 17.5312V7.96875ZM35.4062 7.96875C35.4062 7.08938 36.1276 6.375 37.0156 6.375C37.9036 6.375 38.625 7.08938 38.625 7.96875V17.5312C38.625 18.4106 37.9036 19.125 37.0156 19.125C36.1276 19.125 35.4062 18.4106 35.4062 17.5312V7.96875ZM17.7031 7.96875C17.7031 7.08938 18.4245 6.375 19.3125 6.375C20.2005 6.375 20.9219 7.08938 20.9219 7.96875V17.5312C20.9219 18.4106 20.2005 19.125 19.3125 19.125C18.4245 19.125 17.7031 18.4106 17.7031 17.5312V7.96875ZM11.2656 14.3438H14.4844V17.5312C14.4844 20.1678 16.6501 22.3125 19.3125 22.3125C21.9749 22.3125 24.1406 20.1678 24.1406 17.5312V14.3438H32.1875V17.5312C32.1875 20.1678 34.3532 22.3125 37.0156 22.3125C39.678 22.3125 41.8438 20.1678 41.8438 17.5312V14.3438H51.5V17.5312C51.5 20.1678 53.6657 22.3125 56.3281 22.3125C58.9905 22.3125 61.1562 20.1678 61.1562 17.5312V14.3438H69.2031V17.5312C69.2031 20.1678 71.3689 22.3125 74.0312 22.3125C76.6936 22.3125 78.8594 20.1678 78.8594 17.5312V14.3438H82.0781C84.7405 14.3438 86.9062 16.4885 86.9062 19.125V27.0938H6.4375V19.125C6.4375 16.4885 8.60324 14.3438 11.2656 14.3438ZM11.2656 87.6562C8.60324 87.6562 6.4375 85.5115 6.4375 82.875V30.2812H86.9062V62.7855C85.3599 62.3892 83.7479 62.1562 82.0781 62.1562C80.9792 62.1562 79.9086 62.2687 78.8594 62.4441V54.1875C78.8594 53.3066 78.1395 52.5938 77.25 52.5938H67.5938C66.7042 52.5938 65.9844 53.3066 65.9844 54.1875V63.75C65.9844 64.6309 66.7042 65.3438 67.5938 65.3438H71.4254C66.2125 68.772 62.7656 74.6328 62.7656 81.2812C62.7656 83.5191 63.1759 85.6587 63.8922 87.6562H11.2656ZM75.6406 62.1562H69.2031V55.7812H75.6406V62.1562ZM82.0781 97.2188C73.2046 97.2188 65.9844 90.0687 65.9844 81.2812C65.9844 72.4938 73.2046 65.3438 82.0781 65.3438C90.9517 65.3438 98.1719 72.4938 98.1719 81.2812C98.1719 90.0687 90.9517 97.2188 82.0781 97.2188Z" fill="#005CAA"/>
<path d="M83.6875 78.5359V68.5312H80.4688V78.5359C79.5107 79.088 78.8594 80.1043 78.8594 81.2812C78.8594 81.4426 78.8839 81.5974 78.9073 81.7522L73.0254 86.4111L75.0371 88.9014L80.9139 84.2455C81.2759 84.3851 81.6664 84.4688 82.0781 84.4688C83.8558 84.4688 85.2969 83.0416 85.2969 81.2812C85.2969 80.1043 84.6455 79.088 83.6875 78.5359Z" fill="#005CAA"/>
<path d="M24.1406 35.0625H14.4844C13.5948 35.0625 12.875 35.7753 12.875 36.6562V46.2188C12.875 47.0997 13.5948 47.8125 14.4844 47.8125H24.1406C25.0302 47.8125 25.75 47.0997 25.75 46.2188V36.6562C25.75 35.7753 25.0302 35.0625 24.1406 35.0625ZM22.5312 44.625H16.0938V38.25H22.5312V44.625Z" fill="#005CAA"/>
<path d="M41.8438 35.0625H32.1875C31.298 35.0625 30.5781 35.7753 30.5781 36.6562V46.2188C30.5781 47.0997 31.298 47.8125 32.1875 47.8125H41.8438C42.7333 47.8125 43.4531 47.0997 43.4531 46.2188V36.6562C43.4531 35.7753 42.7333 35.0625 41.8438 35.0625ZM40.2344 44.625H33.7969V38.25H40.2344V44.625Z" fill="#005CAA"/>
<path d="M59.5469 35.0625H49.8906C49.0011 35.0625 48.2812 35.7753 48.2812 36.6562V46.2188C48.2812 47.0997 49.0011 47.8125 49.8906 47.8125H59.5469C60.4364 47.8125 61.1562 47.0997 61.1562 46.2188V36.6562C61.1562 35.7753 60.4364 35.0625 59.5469 35.0625ZM57.9375 44.625H51.5V38.25H57.9375V44.625Z" fill="#005CAA"/>
<path d="M67.5938 47.8125H77.25C78.1396 47.8125 78.8594 47.0997 78.8594 46.2188V36.6562C78.8594 35.7753 78.1396 35.0625 77.25 35.0625H67.5938C66.7042 35.0625 65.9844 35.7753 65.9844 36.6562V46.2188C65.9844 47.0997 66.7042 47.8125 67.5938 47.8125ZM69.2031 38.25H75.6406V44.625H69.2031V38.25Z" fill="#005CAA"/>
<path d="M24.1406 52.5938H14.4844C13.5948 52.5938 12.875 53.3066 12.875 54.1875V63.75C12.875 64.6309 13.5948 65.3438 14.4844 65.3438H24.1406C25.0302 65.3438 25.75 64.6309 25.75 63.75V54.1875C25.75 53.3066 25.0302 52.5938 24.1406 52.5938ZM22.5312 62.1562H16.0938V55.7812H22.5312V62.1562Z" fill="#005CAA"/>
<path d="M41.8438 52.5938H32.1875C31.298 52.5938 30.5781 53.3066 30.5781 54.1875V63.75C30.5781 64.6309 31.298 65.3438 32.1875 65.3438H41.8438C42.7333 65.3438 43.4531 64.6309 43.4531 63.75V54.1875C43.4531 53.3066 42.7333 52.5938 41.8438 52.5938ZM40.2344 62.1562H33.7969V55.7812H40.2344V62.1562Z" fill="#005CAA"/>
<path d="M59.5469 52.5938H49.8906C49.0011 52.5938 48.2812 53.3066 48.2812 54.1875V63.75C48.2812 64.6309 49.0011 65.3438 49.8906 65.3438H59.5469C60.4364 65.3438 61.1562 64.6309 61.1562 63.75V54.1875C61.1562 53.3066 60.4364 52.5938 59.5469 52.5938ZM57.9375 62.1562H51.5V55.7812H57.9375V62.1562Z" fill="#005CAA"/>
<path d="M24.1406 70.125H14.4844C13.5948 70.125 12.875 70.8378 12.875 71.7188V81.2812C12.875 82.1622 13.5948 82.875 14.4844 82.875H24.1406C25.0302 82.875 25.75 82.1622 25.75 81.2812V71.7188C25.75 70.8378 25.0302 70.125 24.1406 70.125ZM22.5312 79.6875H16.0938V73.3125H22.5312V79.6875Z" fill="#005CAA"/>
<path d="M41.8438 70.125H32.1875C31.298 70.125 30.5781 70.8378 30.5781 71.7188V81.2812C30.5781 82.1622 31.298 82.875 32.1875 82.875H41.8438C42.7333 82.875 43.4531 82.1622 43.4531 81.2812V71.7188C43.4531 70.8378 42.7333 70.125 41.8438 70.125ZM40.2344 79.6875H33.7969V73.3125H40.2344V79.6875Z" fill="#005CAA"/>
<path d="M59.5469 70.125H49.8906C49.0011 70.125 48.2812 70.8378 48.2812 71.7188V81.2812C48.2812 82.1622 49.0011 82.875 49.8906 82.875H59.5469C60.4364 82.875 61.1562 82.1622 61.1562 81.2812V71.7188C61.1562 70.8378 60.4364 70.125 59.5469 70.125ZM57.9375 79.6875H51.5V73.3125H57.9375V79.6875Z" fill="#005CAA"/>
</svg>
