<svg width="103" height="102" viewBox="0 0 103 102" fill="none" xmlns="http://www.w3.org/2000/svg">
<g clip-path="url(#clip0)">
<path d="M87.5056 55.9162C87.4971 52.5045 86.6852 49.1515 85.1372 46.1077L88.6926 42.5868C91.3581 39.9472 91.3581 35.6519 88.6926 33.0121C87.3631 31.6955 85.6178 31.0359 83.8713 31.0327C83.8689 29.2278 83.1581 27.5315 81.8692 26.2549C80.5389 24.9377 78.7922 24.2779 77.0446 24.2755C77.0422 22.545 76.3759 20.8152 75.0456 19.4978C73.7573 18.2222 72.0454 17.5184 70.2242 17.5152C70.2208 15.7117 69.5103 14.0164 68.2222 12.7406C66.9309 11.4618 65.2139 10.7576 63.3879 10.7576C61.5619 10.7576 59.845 11.4618 58.5539 12.7406L51.5017 19.7243L47.5777 15.8382C46.2864 14.5594 44.5697 13.8552 42.7435 13.8552C40.9173 13.8552 39.2005 14.5594 37.9094 15.8382C36.6203 17.1148 35.9098 18.8111 35.9072 20.616C34.1609 20.6191 32.4153 21.2787 31.0858 22.5954C29.7975 23.8711 29.087 25.5662 29.0836 27.3699C27.2624 27.3733 25.5505 28.0769 24.2622 29.3527C22.061 31.5325 21.6796 34.8405 23.1137 37.4137C22.126 37.7335 21.1972 38.2795 20.4134 39.0557C17.748 41.6955 17.748 45.9905 20.4134 48.6303L23.261 51.4502L0.638029 73.8535C-0.147532 74.6315 -0.147532 75.8929 0.638029 76.671C1.03091 77.0599 1.5457 77.2545 2.06049 77.2545C2.57528 77.2545 3.09027 77.0599 3.48295 76.671L18.8188 61.4841L33.1848 75.7106L10.1744 98.4976C9.38883 99.2755 9.38883 100.537 10.1744 101.315C10.5673 101.704 11.0821 101.899 11.5969 101.899C12.1116 101.899 12.6266 101.704 13.0193 101.315L44.1207 70.5157C44.6936 69.9483 45.3458 69.4885 46.0515 69.1427L50.9189 72.3176C54.1382 74.4173 58.0632 75.2377 61.8474 74.6309L88.8958 101.417C89.2887 101.806 89.8035 102 90.3183 102C90.8331 102 91.3481 101.806 91.7407 101.417C92.5263 100.639 92.5263 99.3773 91.7407 98.5992L76.0468 83.0577L77.944 81.1789C78.7296 80.4009 78.7296 79.1395 77.944 78.3614C77.1585 77.5836 75.8847 77.5836 75.0989 78.3614L73.2017 80.2402L68.7597 75.8413L85.3476 59.4142L89.7898 63.8133L87.8968 65.6879C87.1113 66.4661 87.1113 67.7273 87.8968 68.5054C88.2897 68.8943 88.8045 69.0889 89.3193 69.0889C89.8341 69.0889 90.3491 68.8943 90.7417 68.5054L92.6347 66.6308L99.564 73.4928C99.9568 73.8816 100.472 74.0763 100.986 74.0763C101.501 74.0763 102.016 73.8816 102.409 73.4928C103.194 72.7148 103.194 71.4534 102.409 70.6753L87.5056 55.9162ZM61.3988 15.5579C61.9301 15.0318 62.6366 14.7419 63.3879 14.7419C64.1393 14.7419 64.8458 15.0318 65.3771 15.5579C65.9086 16.084 66.2011 16.7837 66.2011 17.5277C66.2011 18.272 65.9084 18.9716 65.3771 19.4978L60.9564 23.8755C60.1709 24.6534 60.1709 25.9149 60.9564 26.693C61.742 27.4711 63.0158 27.4709 63.8015 26.693L68.2222 22.3153C68.7535 21.7889 69.46 21.4993 70.2116 21.4993C70.9629 21.4993 71.6694 21.7891 72.2007 22.3153C73.2977 23.4016 73.2977 25.1688 72.2007 26.2551L65.4503 32.94C64.6648 33.7179 64.6648 34.9793 65.4503 35.7575C65.8432 36.1465 66.358 36.341 66.8728 36.341C67.3876 36.341 67.9025 36.1465 68.2952 35.7575L75.0456 29.0726C75.5769 28.5463 76.2834 28.2566 77.0348 28.2566C77.7863 28.2566 78.4928 28.5465 79.0241 29.0726C79.5554 29.5988 79.8481 30.2984 79.8481 31.0425C79.8481 31.7865 79.5554 32.4862 79.0241 33.0123L72.2737 39.6972C71.4882 40.4751 71.4882 41.7365 72.2737 42.5146C72.6666 42.9037 73.1814 43.0981 73.6962 43.0981C74.211 43.0981 74.726 42.9037 75.1186 42.5146L81.8688 35.8298C82.9656 34.7435 84.7506 34.7437 85.8473 35.8298C86.9443 36.9161 86.9443 38.6835 85.8473 39.7697L69.2196 56.236C63.8959 61.5082 56.8176 64.4117 49.2883 64.4117C47.2494 64.4117 45.2937 64.9435 43.5793 65.9369L31.9355 54.4062C32.8315 54.0711 33.6539 53.5498 34.3516 52.8589C35.6406 51.5823 36.3512 49.886 36.3538 48.0811C38.1001 48.0779 39.8457 47.4181 41.1752 46.1015C42.5047 44.7849 43.1708 43.0565 43.174 41.3269C44.9966 41.3245 46.7097 40.6207 47.9986 39.3441C49.3281 38.0275 49.9942 36.2991 49.9974 34.5696C51.82 34.5672 53.5329 33.8633 54.8218 32.587C56.1131 31.3082 56.8242 29.6081 56.8242 27.7996C56.8242 25.9912 56.1131 24.2911 54.8218 23.0123L54.346 22.5412L61.3988 15.5579ZM40.7543 18.6555C41.2856 18.1294 41.9921 17.8395 42.7435 17.8395C43.4948 17.8395 44.2013 18.1294 44.7326 18.6555L51.9775 25.8298C52.5088 26.3559 52.8015 27.0556 52.8015 27.7996C52.8015 28.5437 52.5088 29.2434 51.9775 29.7697C51.4462 30.2958 50.7397 30.5857 49.9883 30.5857C49.2372 30.5857 48.5311 30.296 47.9998 29.7703C47.9996 29.7701 47.9994 29.7699 47.9992 29.7695L40.7543 22.5952C40.223 22.069 39.9303 21.3694 39.9303 20.6253C39.9303 19.8812 40.2228 19.1818 40.7543 18.6555ZM33.9307 25.4126C34.4793 24.8694 35.1995 24.5981 35.9201 24.5981C36.6404 24.5981 37.361 24.8696 37.9092 25.4126L45.1539 32.587C46.2508 33.6733 46.2506 35.4407 45.1539 36.527C44.6226 37.0532 43.9161 37.343 43.1647 37.343C42.4136 37.343 41.7075 37.0534 41.1762 36.5276C41.176 36.5274 41.1758 36.5272 41.1756 36.5268L33.9309 29.3525C33.3994 28.8264 33.1069 28.1268 33.1069 27.3825C33.1067 26.6384 33.3994 25.939 33.9307 25.4126ZM27.1073 32.17C27.6386 31.6437 28.3451 31.354 29.0965 31.354C29.848 31.354 30.5545 31.6439 31.0858 32.17L38.3305 39.3443C39.4274 40.4307 39.4274 42.1981 38.3305 43.2842C37.2335 44.3703 35.4487 44.3705 34.3518 43.2842L27.1071 36.1099C26.0103 35.0238 26.0103 33.2561 27.1073 32.17ZM23.2584 41.873C23.8069 41.3297 24.5273 41.0584 25.2477 41.0584C25.9671 41.0584 26.6869 41.3295 27.2348 41.8712L31.5068 46.1017C32.0381 46.6278 32.3308 47.3275 32.3308 48.0715C32.3308 48.8156 32.0381 49.5153 31.5068 50.0416C30.9756 50.5679 30.2691 50.8576 29.5175 50.8576C28.7667 50.8576 28.0606 50.5681 27.5294 50.0426L27.5283 50.0416L23.2584 45.813C22.1616 44.7265 22.1616 42.9591 23.2584 41.873ZM21.6639 58.6666L26.1061 54.2675L40.4723 68.4941L36.0301 72.8931L21.6639 58.6666ZM63.9317 71.0599C63.4362 70.5695 62.7189 70.3685 62.0381 70.532C58.9934 71.2578 55.7474 70.696 53.1322 68.9901L52.0427 68.2793C59.6076 67.649 66.6352 64.4305 72.0649 59.0533L82.1044 49.1114C82.968 51.1783 83.4339 53.3874 83.4768 55.6329L65.9152 73.0242L63.9317 71.0599Z" fill="#005CAA"/>
<path d="M81.4962 72.0272C81.122 72.3977 80.9067 72.9097 80.9067 73.4356C80.9067 73.9596 81.122 74.4736 81.4962 74.8439C81.8704 75.2145 82.3894 75.4278 82.9185 75.4278C83.4496 75.4278 83.9666 75.2147 84.3407 74.8439C84.7149 74.4736 84.9302 73.9596 84.9302 73.4356C84.9302 72.9095 84.7149 72.3977 84.3407 72.0272C83.9666 71.6566 83.4475 71.4434 82.9185 71.4434C82.3894 71.4434 81.8704 71.6566 81.4962 72.0272Z" fill="#005CAA"/>
<path d="M13.5916 16.2759C13.9845 16.665 14.4993 16.8594 15.014 16.8594C15.5288 16.8594 16.0438 16.665 16.4365 16.2759C17.2221 15.498 17.2221 14.2366 16.4365 13.4584L6.96732 4.08118C6.18176 3.30325 4.90797 3.30325 4.12221 4.08118C3.33644 4.85912 3.33664 6.12055 4.12221 6.89868L13.5916 16.2759Z" fill="#005CAA"/>
<path d="M24.5435 10.8604C25.6545 10.8604 26.5552 9.96851 26.5552 8.86825V1.99215C26.5552 0.891888 25.6545 2.86102e-06 24.5435 2.86102e-06C23.4324 2.86102e-06 22.5318 0.891888 22.5318 1.99215V8.86825C22.5318 9.96851 23.4324 10.8604 24.5435 10.8604Z" fill="#005CAA"/>
<path d="M2.01279 26.2964H8.95631C10.0674 26.2964 10.968 25.4045 10.968 24.3042C10.968 23.204 10.0674 22.3121 8.95631 22.3121H2.01279C0.901743 22.3121 0.00111389 23.204 0.00111389 24.3042C0.00111389 25.4045 0.901743 26.2964 2.01279 26.2964Z" fill="#005CAA"/>
<path d="M87.986 16.8594C88.5008 16.8594 89.0158 16.6649 89.4085 16.2759L98.8777 6.89861C99.6632 6.12068 99.6632 4.85925 98.8777 4.08112C98.0921 3.30298 96.8183 3.30318 96.0326 4.08112L86.5634 13.4584C85.7778 14.2363 85.7778 15.4977 86.5634 16.2759C86.9565 16.6649 87.4712 16.8594 87.986 16.8594Z" fill="#005CAA"/>
<path d="M78.4565 10.8604C79.5676 10.8604 80.4682 9.96851 80.4682 8.86825V1.99215C80.4682 0.891888 79.5676 2.86102e-06 78.4565 2.86102e-06C77.3455 2.86102e-06 76.4448 0.891888 76.4448 1.99215V8.86825C76.4448 9.96851 77.3455 10.8604 78.4565 10.8604Z" fill="#005CAA"/>
<path d="M92.0323 24.3042C92.0323 25.4045 92.9329 26.2964 94.044 26.2964H100.988C102.099 26.2964 102.999 25.4045 102.999 24.3042C102.999 23.204 102.099 22.3121 100.988 22.3121H94.044C92.9329 22.3121 92.0323 23.204 92.0323 24.3042Z" fill="#005CAA"/>
</g>
<defs>
<clipPath id="clip0">
<rect width="103" height="102" fill="white"/>
</clipPath>
</defs>
</svg>
