<svg width="105" height="106" viewBox="0 0 105 106" fill="none" xmlns="http://www.w3.org/2000/svg">
<path d="M76.2097 27.3548C79.0105 27.3548 81.2903 25.0533 81.2903 22.2258C81.2903 19.3983 79.0105 17.0968 76.2097 17.0968C73.4089 17.0968 71.129 19.3983 71.129 22.2258C71.129 25.0533 73.4089 27.3548 76.2097 27.3548ZM76.2097 20.5161C77.1424 20.5161 77.9032 21.2841 77.9032 22.2258C77.9032 23.1675 77.1424 23.9355 76.2097 23.9355C75.2769 23.9355 74.5161 23.1675 74.5161 22.2258C74.5161 21.2841 75.2769 20.5161 76.2097 20.5161Z" fill="#005CAA"/>
<path d="M91.2399 37.6129L86.9349 27.2914C87.6511 25.7512 88.0645 24.0382 88.0645 22.2258C88.0645 17.4641 85.2885 13.3544 81.2903 11.4293V3.41935C81.2903 1.53353 79.7713 0 77.9032 0H74.5161C72.6481 0 71.129 1.53353 71.129 3.41935V11.4293C67.1308 13.3544 64.3548 17.4641 64.3548 22.2258C64.3548 24.0382 64.7683 25.7512 65.4844 27.2914L61.1794 37.6129H52.5V0H32.1774V37.6129H28.7903V14.8687L20.3226 2.0461L11.8548 14.8687V37.6129H0V91.3208L14.5407 106H105V37.6129H91.2399ZM94.6527 54.6103C94.7759 54.9042 94.8387 55.2172 94.8387 55.5386V55.7273C94.8387 57.0521 93.772 58.129 92.4613 58.129C91.5021 58.129 90.6421 57.553 90.2691 56.6623L80.5486 33.3521C82.0999 32.7335 83.4933 31.8002 84.6468 30.6206L94.6527 54.6103ZM94.8387 71.8064V88.9032H74.5161V71.8064H94.8387ZM76.2097 34.1936C76.5454 34.1936 76.8754 34.171 77.2036 34.1426L81.0546 43.3764C77.995 44.7521 74.4243 44.7521 71.3647 43.3764L75.2157 34.1426C75.544 34.171 75.8739 34.1936 76.2097 34.1936ZM74.5161 3.41935H77.9032V10.395C77.3475 10.3148 76.7852 10.2581 76.2097 10.2581C75.6341 10.2581 75.0718 10.3148 74.5161 10.395V3.41935ZM76.2097 13.6774C80.8785 13.6774 84.6774 17.5125 84.6774 22.2258C84.6774 26.9391 80.8785 30.7742 76.2097 30.7742C71.5408 30.7742 67.7419 26.9391 67.7419 22.2258C67.7419 17.5125 71.5408 13.6774 76.2097 13.6774ZM71.8708 33.3521L62.1478 56.6623C61.7773 57.553 60.9173 58.129 59.9581 58.129C58.6474 58.129 57.5806 57.0521 57.5806 55.729V55.5403C57.5806 55.2189 57.6435 54.9067 57.7667 54.6103L67.7725 30.6223C68.9244 31.8002 70.3195 32.7335 71.8708 33.3521ZM10.1613 68.3871H25.4032V78.6452H33.871V82.0645H10.1613V68.3871ZM28.7903 75.2258V64.9677H10.1613V61.5484H20.3226V59.8387C20.3226 57.0112 22.6024 54.7097 25.4032 54.7097H27.0968V47.871H30.4839V63.2581H50.8065V47.871H56.9017L54.6459 53.2805C54.3457 53.9984 54.1936 54.7573 54.1936 55.5386V55.7273C54.1936 58.0781 55.5894 60.0967 57.5806 61.0149V65.9186C56.5801 65.33 55.4331 64.9677 54.1936 64.9677C50.4575 64.9677 47.4194 68.0348 47.4194 71.8064C47.4194 75.5781 50.4575 78.6452 54.1936 78.6452C57.9296 78.6452 60.9677 75.5781 60.9677 71.8064V61.449C62.2974 61.212 63.4932 60.5191 64.3548 59.4898V82.0645H37.2581V75.2258H28.7903ZM10.1613 58.129V47.871H23.7097V51.4631C20.397 52.1435 17.7806 54.7848 17.1067 58.129H10.1613ZM33.871 47.871H47.4194V59.8387H33.871V47.871ZM57.5806 71.8064C57.5806 73.6923 56.0616 75.2258 54.1936 75.2258C52.3255 75.2258 50.8065 73.6923 50.8065 71.8064C50.8065 69.9206 52.3255 68.3871 54.1936 68.3871C56.0616 68.3871 57.5806 69.9206 57.5806 71.8064ZM35.5645 3.41935H49.1129V6.83871H42.3387V10.2581H49.1129V13.6774H45.7258V17.0968H49.1129V20.5161H42.3387V23.9355H49.1129V27.3548H45.7258V30.7742H49.1129V37.6129H35.5645V3.41935ZM22.0161 37.6129V17.0968H25.4032V37.6129H22.0161ZM23.9329 13.6774H16.7139L20.3226 8.21196L23.9329 13.6774ZM15.2419 17.0968H18.629V37.6129H15.2419V17.0968ZM13.5484 100.163L5.78188 92.3226H13.5484V100.163ZM101.613 102.581H16.9355V88.9032H3.3871V41.0323H59.7538L58.3274 44.4516H6.77419V85.4839H67.7419V52.0617L70.0466 46.5361C71.9874 47.4077 74.0845 47.871 76.2097 47.871C78.3349 47.871 80.432 47.4077 82.3728 46.5361L87.1483 57.9871C87.9173 59.8304 89.548 61.1093 91.4516 61.449V68.3871H71.129V92.3226H98.2258V68.3871H94.8387V61.0149C96.83 60.0967 98.2258 58.0781 98.2258 55.7273V55.5386C98.2258 54.7573 98.0737 53.9984 97.7735 53.2805L92.6655 41.0323H101.613V102.581Z" fill="#005CAA"/>
<path d="M20.3226 99.1613H57.5806V88.9032H20.3226V99.1613ZM40.6452 95.7419H37.2581V92.3226H40.6452V95.7419ZM44.0322 92.3226H47.4193V95.7419H44.0322V92.3226ZM33.871 95.7419H30.4839V92.3226H33.871V95.7419ZM54.1935 95.7419H50.8064V92.3226H54.1935V95.7419ZM23.7097 92.3226H27.0968V95.7419H23.7097V92.3226Z" fill="#005CAA"/>
<path d="M60.9677 95.7419H98.2258V99.1613H60.9677V95.7419Z" fill="#005CAA"/>
</svg>
