<svg width="85" height="112" viewBox="0 0 85 112" fill="none" xmlns="http://www.w3.org/2000/svg">
<path d="M79.6251 34.0982H76.3751C73.6874 34.0982 71.5001 36.5138 71.5001 39.4821V39.789C69.6086 40.5302 68.2501 42.5258 68.2501 44.8661V46.9676C68.2501 48.4051 68.7571 49.7583 69.6785 50.7758L71.4189 52.6979L69.6671 69.1422C64.9156 60.6715 57.2456 54.5481 48.3731 52.2995L47.6468 49.8911C50.0176 49.1678 51.9628 47.3175 52.9361 44.8661H53.6251C57.2099 44.8661 60.1251 41.6465 60.1251 37.6875V28.7143C61.9175 28.7143 63.3751 27.1045 63.3751 25.125V21.5357C63.3751 19.5562 61.9175 17.9464 60.1251 17.9464H59.8424C58.2889 7.60928 50.2825 0 40.6251 0C30.9678 0 22.9614 7.60928 21.4079 17.9464H21.1251C19.3328 17.9464 17.8751 19.5562 17.8751 21.5357V25.125C17.8751 27.1045 19.3328 28.7143 21.1251 28.7143V37.6875C21.1251 41.6465 24.0404 44.8661 27.6251 44.8661H28.3141C29.2891 47.3175 31.2343 49.1696 33.6035 49.8911L32.8755 52.3013C29.2014 53.2309 25.6995 54.9501 22.6039 57.3083L19.4026 46.3305C19.3929 46.2713 19.3945 46.212 19.3831 46.1528C18.5674 42.3715 13.7233 40.3938 8.32827 41.6572C4.97915 42.4415 2.1809 44.3061 0.841897 46.641C0.0765224 47.9762 -0.173728 49.3975 0.118772 50.7543C0.286147 51.5332 0.632272 52.2313 1.11165 52.8432L12.2461 71.2617C10.613 75.4073 9.75014 79.7952 9.75014 84.3482C9.75014 92.0005 13.7216 98.6353 19.5001 101.911V104.089C19.5001 108.048 22.4154 111.268 26.0001 111.268H30.8751H35.7501H61.7501V87.7706C64.1161 91.2324 67.7919 93.3214 71.8268 93.3214C78.8143 93.3214 84.5001 87.0419 84.5001 79.3268V39.4821C84.5001 36.5138 82.3129 34.0982 79.6251 34.0982ZM71.5001 44.8661C71.5001 43.8772 72.2281 43.0714 73.1251 43.0714H74.7501V39.4821C74.7501 38.4933 75.4781 37.6875 76.3751 37.6875H79.6251C80.5221 37.6875 81.2501 38.4933 81.2501 39.4821V50.25H73.7979L71.9763 48.2382C71.6691 47.899 71.5001 47.4468 71.5001 46.9676V44.8661ZM45.5001 104.089V107.679H41.3466C41.9056 106.618 42.2501 105.403 42.2501 104.089H45.5001ZM47.1251 100.5H37.3751V92.2697L39.1968 90.2579C39.5006 89.9241 39.9183 89.7321 40.3456 89.7321H42.2501C43.1471 89.7321 43.8751 90.5379 43.8751 91.5268V93.3214H47.1251C48.0221 93.3214 48.7501 94.1272 48.7501 95.116V98.7053C48.7501 99.6942 48.0221 100.5 47.1251 100.5ZM44.3285 50.25L45.3035 53.4803L40.6251 59.9393L35.9451 53.4785L36.9201 50.2482H44.3285V50.25ZM35.9614 59.2465C35.8899 59.2447 35.8216 59.2232 35.7501 59.2232H26.0001C25.9839 59.2232 25.9693 59.2286 25.953 59.2286C28.2963 57.6888 30.8443 56.5384 33.5044 55.8547L35.9614 59.2465ZM26.0001 62.8125H30.1228C29.567 63.8695 29.2501 65.0953 29.2501 66.4018V68.1964H32.5001V66.4018C32.5001 64.4223 33.9578 62.8125 35.7501 62.8125C37.5425 62.8125 39.0001 64.4223 39.0001 66.4018C39.0001 68.3813 37.5425 69.9911 35.7501 69.9911H26.0001C24.2078 69.9911 22.7501 68.3813 22.7501 66.4018C22.7501 64.4223 24.2078 62.8125 26.0001 62.8125ZM22.7501 72.5825C23.7105 73.1999 24.8106 73.5803 26.0001 73.5803H35.7501C36.9396 73.5803 38.0398 73.1999 39.0001 72.5825V86.3761C38.2169 86.6256 37.4905 87.0653 36.899 87.7203L35.0774 89.7321H29.2501C26.9751 89.7321 24.7505 89.1327 22.7501 88.0362V72.5825ZM45.5001 87.5337C44.6356 86.6758 43.5014 86.1428 42.2501 86.1428V66.4018C42.2501 65.5547 42.0925 64.7525 41.8471 63.9969L45.5001 58.9558V87.5337ZM53.6251 41.2768V34.0982C55.4175 34.0982 56.8751 35.708 56.8751 37.6875C56.8751 39.667 55.4175 41.2768 53.6251 41.2768ZM56.8751 31.5067C55.9148 30.8894 54.8146 30.5089 53.6251 30.5089V28.7143H56.8751V31.5067ZM56.5436 17.9464H45.5001V4.41123C51.082 6.32073 55.3639 11.4355 56.5436 17.9464ZM42.2501 3.67902V17.9464H39.0001V3.67902C39.5348 3.62159 40.0759 3.58928 40.6251 3.58928C41.1744 3.58928 41.7155 3.62159 42.2501 3.67902ZM35.7501 4.41123V17.9464H24.7066C25.8864 11.4355 30.1683 6.32073 35.7501 4.41123ZM21.1235 21.5357H60.1251V25.125H21.1251L21.1235 21.5357ZM27.6251 28.7143V30.5089C26.4356 30.5089 25.3355 30.8894 24.3751 31.5067V28.7143H27.6251ZM24.3751 37.6875C24.3751 35.708 25.8328 34.0982 27.6251 34.0982V41.2768C25.8328 41.2768 24.3751 39.667 24.3751 37.6875ZM30.8751 41.2768V28.7143H50.3751V41.2768C50.3751 44.2451 48.1879 46.6607 45.5001 46.6607H35.7501C33.0624 46.6607 30.8751 44.2451 30.8751 41.2768ZM3.58652 48.563C4.44127 47.0735 6.56677 45.7418 9.00427 45.1694C9.93215 44.9522 10.7999 44.8571 11.5896 44.8571C13.889 44.8571 15.527 45.6611 16.06 46.5799L16.2193 47.1255C16.2583 47.4934 16.1721 47.899 15.9138 48.3495C15.059 49.839 12.9335 51.1706 10.496 51.7431C7.14202 52.5274 4.60865 51.7108 3.66777 50.6143L3.34927 50.0867C3.32977 50.0328 3.29077 49.9826 3.27777 49.9287C3.19327 49.5267 3.29727 49.0691 3.58652 48.563ZM7.97077 55.6321C8.99452 55.6321 10.0719 55.5101 11.172 55.2517C13.7834 54.6397 16.0503 53.3673 17.5615 51.7306L20.6539 62.3351C19.9291 63.4926 19.5001 64.8907 19.5001 66.4018V76.7999L6.65615 55.5549C7.08352 55.6016 7.52064 55.6321 7.97077 55.6321ZM13.0001 84.3482C13.0001 81.0837 13.4795 77.9072 14.4236 74.8689L19.5001 83.266V85.5829C18.7916 84.883 18.1286 84.1221 17.5501 83.2714L14.9501 85.425C18.3074 90.3692 23.6536 93.3214 29.2501 93.3214H34.1251V100.5H27.6251C19.5603 100.5 13.0001 93.2532 13.0001 84.3482ZM30.8751 107.679H26.0001C24.2078 107.679 22.7501 106.069 22.7501 104.089V103.325C24.302 103.811 25.9335 104.089 27.6251 104.089H39.0001C39.0001 106.069 37.5425 107.679 35.7501 107.679H30.8751ZM71.8268 89.7321C68.2355 89.7321 65.0066 87.5283 63.3995 83.9803L61.7501 80.3354V73.5803H58.5001V107.679H48.7501V103.759C50.6368 103.016 52.0001 101.042 52.0001 98.7053V95.116C52.0001 92.7794 50.6368 90.8053 48.7501 90.0623V56.1077C57.5625 58.7279 64.9514 65.5978 68.7539 74.8348L68.9993 75.4288L68.2631 82.3454L71.4904 82.7635L74.5698 53.8393H81.2501V79.3268C81.2501 85.0642 77.0219 89.7321 71.8268 89.7321Z" fill="#005CAA"/>
</svg>
